<?xml version="1.0" standalone="no"?>
<!DOCTYPE svg PUBLIC "-//W3C//DTD SVG 20010904//EN"
 "http://www.w3.org/TR/2001/REC-SVG-20010904/DTD/svg10.dtd">
<svg version="1.0" xmlns="http://www.w3.org/2000/svg"
 width="600.000000pt" height="600.000000pt" viewBox="0 0 600.000000 600.000000"
 preserveAspectRatio="xMidYMid meet">
<metadata>
Created by potrace 1.14, written by Peter Selinger 2001-2017
</metadata>
<g transform="translate(0.000000,600.000000) scale(0.100000,-0.100000)"
fill="#000000" stroke="none">
<path d="M2507 5974 c-43 -7 -86 -15 -95 -19 -9 -3 -62 -10 -118 -15 -93 -7
-109 -12 -215 -62 -122 -58 -229 -136 -357 -262 -199 -194 -424 -634 -564
-1101 -39 -133 -77 -263 -87 -300 -14 -51 -100 -271 -142 -362 -10 -24 -19
-46 -19 -49 0 -4 -16 -33 -36 -66 -93 -153 -173 -337 -219 -508 -10 -36 -26
-94 -36 -130 -21 -78 -34 -213 -30 -331 2 -57 -3 -111 -14 -158 -20 -81 -16
-104 42 -250 45 -115 93 -173 209 -261 166 -125 235 -187 269 -242 17 -29 62
-96 98 -148 86 -123 261 -382 266 -395 5 -13 94 -149 101 -155 3 -3 23 -27 45
-55 22 -27 71 -86 109 -129 39 -43 61 -74 48 -67 -12 6 -49 44 -83 84 -82 96
-84 98 -58 53 36 -62 123 -150 202 -203 121 -83 141 -97 177 -125 32 -25 240
-128 258 -128 4 0 35 -24 68 -52 34 -29 119 -95 188 -146 114 -83 163 -111
273 -152 18 -7 35 -20 38 -29 3 -9 24 -38 48 -64 34 -39 51 -50 87 -57 25 -5
54 -12 65 -15 18 -6 18 -5 3 7 -9 7 -25 18 -35 25 -10 6 15 -2 55 -18 113 -47
215 -69 314 -69 52 0 88 4 88 10 0 6 19 10 43 11 85 2 98 12 82 65 -6 20 -2
22 62 29 l68 8 -115 17 c-127 19 -184 44 -306 134 -199 147 -335 423 -404 816
-33 191 -71 375 -145 709 -9 41 -21 83 -28 95 -18 34 -47 150 -38 159 4 4 29
-1 54 -12 26 -11 47 -19 47 -17 0 2 -17 21 -38 42 -21 22 -55 68 -76 103 -35
61 -38 72 -66 280 -16 119 -38 282 -49 364 -12 81 -39 315 -61 520 -23 204
-45 392 -50 417 -5 25 -9 66 -10 92 0 53 3 55 90 62 30 3 62 7 70 10 8 2 53 7
99 11 47 3 92 11 100 18 9 7 38 19 65 25 44 11 57 10 120 -9 63 -19 112 -46
103 -56 -2 -2 -23 4 -47 12 -50 18 -119 19 -191 4 -37 -8 -48 -14 -38 -20 9
-7 5 -7 -14 -3 -16 4 -33 1 -41 -5 -8 -7 -25 -14 -38 -15 -39 -5 -78 -18 -78
-25 0 -4 6 -16 14 -27 10 -14 11 -23 4 -32 -17 -20 49 -84 73 -72 27 15 43 12
82 -14 19 -13 39 -21 43 -18 4 4 4 2 1 -4 -3 -6 7 -21 24 -33 24 -18 43 -23
95 -22 70 0 84 -14 42 -44 -23 -16 -23 -16 7 -9 17 3 46 14 65 23 30 14 35 21
35 51 0 39 -16 47 -93 49 -39 1 -42 3 -32 20 15 29 12 73 -6 100 -16 22 -15
23 2 19 20 -3 105 -118 98 -130 -3 -5 -1 -8 4 -8 21 0 20 31 -4 75 -30 57 -15
50 28 -13 34 -50 48 -63 59 -56 4 2 24 39 44 80 l37 76 -33 29 c-18 16 -54 44
-81 61 -26 18 -48 36 -48 40 0 8 68 20 123 20 23 1 57 -6 75 -16 25 -13 37
-14 53 -5 20 10 81 8 199 -7 30 -4 76 -6 103 -6 26 0 47 -1 47 -3 0 -2 -32
-25 -72 -51 -39 -26 -66 -50 -60 -52 6 -2 23 5 39 15 26 16 27 16 14 0 -18
-22 -9 -22 42 3 l42 21 -25 -22 c-14 -12 -56 -37 -95 -56 -76 -38 -119 -73
-141 -115 -19 -36 -18 -47 5 -41 13 3 21 -1 25 -14 3 -11 20 -40 36 -66 22
-35 36 -47 54 -47 15 0 33 -11 45 -26 12 -16 21 -21 21 -13 0 28 -31 59 -71
71 -46 13 -69 49 -47 76 10 12 29 14 96 9 46 -4 90 -11 97 -17 22 -19 96 5
129 41 22 25 27 38 23 64 -5 29 -2 33 30 46 46 18 81 60 88 107 11 66 16 70
37 25 10 -24 25 -43 33 -43 21 0 95 90 125 153 26 54 49 137 66 232 6 35 11
19 39 -130 30 -154 80 -381 179 -815 20 -85 88 -355 152 -600 64 -245 126
-481 137 -525 12 -44 23 -72 25 -63 3 15 -56 266 -140 593 -17 66 -34 141 -38
166 -5 25 -13 64 -18 85 -6 21 -20 82 -32 134 -11 52 -30 131 -40 175 -11 44
-45 190 -75 325 -118 513 -200 839 -255 1000 -16 47 -45 139 -66 205 -75 243
-176 451 -296 606 -52 68 -170 176 -280 256 -50 36 -191 113 -328 179 l-95 46
-180 3 c-157 2 -186 5 -220 22 -57 29 -90 32 -178 17z m-671 -581 c-23 -49
-47 -99 -54 -113 -11 -25 -11 -25 -6 5 5 29 4 28 -16 -9 -85 -153 -179 -555
-214 -916 -10 -101 -14 -120 -15 -73 -1 70 38 377 70 539 34 177 170 545 190
513 6 -11 23 20 24 46 1 10 55 95 61 95 2 0 -16 -39 -40 -87z m47 12 c-3 -9
-8 -14 -10 -11 -3 3 -2 9 2 15 9 16 15 13 8 -4z m-23 -43 c0 -5 -7 -17 -15
-28 -14 -18 -14 -17 -4 9 12 27 19 34 19 19z m-122 -47 c-12 -24 -23 -43 -26
-41 -4 5 36 86 43 86 3 0 -5 -20 -17 -45z m52 -113 c-22 -55 -43 -116 -46
-134 l-5 -33 15 25 16 25 -5 -25 c-2 -14 -16 -72 -29 -130 -40 -169 -69 -360
-96 -625 l-9 -90 5 105 c6 149 31 355 59 497 28 136 30 163 9 88 -32 -114 -69
-364 -98 -670 -2 -22 -2 14 1 80 8 246 63 572 127 760 40 118 87 237 92 232 2
-1 -15 -49 -36 -105z m-104 -10 c-14 -34 -30 -87 -37 -117 -7 -30 -14 -53 -17
-51 -8 8 18 111 45 174 34 80 41 75 9 -6z m47 -51 c-62 -185 -117 -492 -153
-856 l-9 -90 5 115 c6 145 37 405 64 535 20 99 65 254 102 353 34 91 28 53 -9
-57z m66 -90 c-7 -23 -14 -39 -16 -37 -3 2 1 23 8 45 7 23 14 39 16 37 3 -2
-1 -23 -8 -45z m-39 -150 c-23 -104 -25 -134 -4 -76 13 39 14 39 9 6 -27 -184
-46 -329 -54 -391 -6 -58 -9 -65 -10 -30 0 25 8 113 19 195 23 172 24 210 4
111 -11 -56 -33 -231 -58 -446 -2 -19 -2 11 1 68 7 181 51 476 94 625 20 72
20 30 -1 -62z m67 67 c-3 -8 -6 -5 -6 6 -1 11 2 17 5 13 3 -3 4 -12 1 -19z
m-10 -40 c-3 -8 -6 -5 -6 6 -1 11 2 17 5 13 3 -3 4 -12 1 -19z m-10 -50 c-3
-7 -5 -2 -5 12 0 14 2 19 5 13 2 -7 2 -19 0 -25z m-10 -50 c-3 -7 -5 -2 -5 12
0 14 2 19 5 13 2 -7 2 -19 0 -25z m-230 -30 c-3 -8 -6 -5 -6 6 -1 11 2 17 5
13 3 -3 4 -12 1 -19z m220 -20 c-3 -7 -5 -2 -5 12 0 14 2 19 5 13 2 -7 2 -19
0 -25z m-230 -40 c-3 -7 -5 -2 -5 12 0 14 2 19 5 13 2 -7 2 -19 0 -25z m220
-10 c-3 -8 -6 -5 -6 6 -1 11 2 17 5 13 3 -3 4 -12 1 -19z m-230 -45 c-3 -10
-5 -4 -5 12 0 17 2 24 5 18 2 -7 2 -21 0 -30z m-10 -70 c-3 -10 -5 -4 -5 12 0
17 2 24 5 18 2 -7 2 -21 0 -30z m362 -119 c0 -33 -2 -64 -5 -67 -4 -4 -8 -23
-9 -44 -2 -21 -5 -63 -9 -93 -26 -244 -40 -760 -27 -1068 3 -85 3 -156 -2
-159 -4 -2 -3 -13 3 -23 5 -10 10 -41 10 -69 0 -27 7 -130 15 -228 21 -242 24
-271 40 -403 7 -63 16 -142 20 -175 11 -102 54 -402 81 -563 14 -85 24 -156
21 -158 -3 -4 -18 75 -68 366 -5 30 -21 116 -34 190 -14 74 -26 165 -28 201
-1 37 -4 65 -8 64 -9 -6 -65 462 -75 635 -3 63 -8 118 -10 122 -2 3 -8 143
-13 310 -14 447 5 806 62 1148 23 141 33 146 36 14z m-372 49 c-3 -10 -5 -4
-5 12 0 17 2 24 5 18 2 -7 2 -21 0 -30z m213 -139 c-17 -176 -19 -185 -14 -63
4 113 12 184 21 176 2 -3 -1 -53 -7 -113z m-43 -141 c-2 -21 -4 -6 -4 32 0 39
2 55 4 38 2 -18 2 -50 0 -70z m-170 -145 c-2 -18 -4 -6 -4 27 0 33 2 48 4 33
2 -15 2 -42 0 -60z m130 40 c-3 -7 -5 -2 -5 12 0 14 2 19 5 13 2 -7 2 -19 0
-25z m531 -95 c0 -10 3 -66 7 -125 6 -81 5 -108 -4 -108 -14 0 -11 -68 25
-500 29 -351 63 -697 71 -725 3 -11 2 -17 -2 -13 -15 15 -44 236 -75 580 -20
217 -30 278 -30 185 0 -25 -4 -48 -8 -51 -9 -5 -8 637 0 709 3 22 6 46 7 53 2
19 10 14 9 -5z m1752 -53 c9 -18 6 -20 -41 -26 -35 -5 -54 -13 -62 -26 -13
-22 -108 -68 -140 -68 -20 0 -20 1 4 27 19 21 20 25 6 20 -39 -14 -3 15 53 43
36 18 75 30 99 30 22 0 43 5 46 10 10 16 23 12 35 -10z m-1655 -211 c18 -254
32 -429 45 -559 20 -195 37 -397 39 -450 0 -30 13 -131 27 -225 34 -231 36
-249 19 -185 -7 30 -26 127 -40 215 -15 88 -33 189 -40 225 l-14 65 5 -60 c3
-33 14 -122 25 -199 11 -76 18 -140 16 -142 -13 -13 -74 449 -97 731 -6 72
-17 209 -25 305 -17 199 -19 304 -6 296 9 -6 21 87 21 162 0 101 11 23 25
-179z m-68 164 c-3 -10 -5 -4 -5 12 0 17 2 24 5 18 2 -7 2 -21 0 -30z m1574
-114 c22 -22 22 -44 -1 -103 -15 -40 -21 -29 -10 18 8 37 6 42 -25 73 -32 32
-32 33 -9 33 13 0 33 -9 45 -21z m-946 -19 c-8 -16 -15 -43 -15 -60 0 -18 -5
-30 -13 -30 -21 0 -138 73 -134 84 2 6 23 14 47 18 23 4 45 10 48 13 3 3 23 5
44 5 l39 0 -16 -30z m825 6 c-14 -16 -20 -31 -16 -42 3 -9 1 -23 -5 -30 -6 -8
-8 -25 -5 -40 l7 -26 -65 4 c-36 2 -68 7 -71 10 -15 14 68 118 94 118 9 1 27
7 41 15 38 22 46 18 20 -9z m-1293 -48 c-2 -13 -4 -5 -4 17 -1 22 1 32 4 23 2
-10 2 -28 0 -40z m493 22 c0 -5 -4 -10 -10 -10 -5 0 -10 5 -10 10 0 6 5 10 10
10 6 0 10 -4 10 -10z m660 -27 c-1 -13 -40 -56 -45 -51 -3 3 4 17 16 31 21 27
29 33 29 20z m-1170 -413 c56 -648 70 -795 89 -913 10 -65 14 -114 10 -110
-16 16 -60 301 -74 483 -8 102 -26 318 -40 480 -22 263 -31 443 -19 415 2 -5
17 -165 34 -355z m19 149 c16 -182 21 -215 32 -198 6 10 9 8 9 -9 0 -13 -4
-20 -10 -17 -15 9 -12 -59 3 -74 8 -8 12 -43 11 -109 -1 -59 1 -89 6 -77 7 15
9 9 10 -25 2 -45 2 -49 -8 -84 -4 -14 -2 -17 8 -11 10 6 12 -3 8 -44 -3 -28
-1 -51 3 -51 5 0 6 -29 3 -65 -4 -43 2 -113 16 -206 12 -77 20 -142 18 -145
-13 -13 -66 388 -93 701 -8 105 -22 263 -30 353 -8 90 -15 182 -14 205 1 74
15 4 28 -144z m58 74 c-3 -10 -5 -4 -5 12 0 17 2 24 5 18 2 -7 2 -21 0 -30z
m-220 -20 c-3 -10 -5 -2 -5 17 0 19 2 27 5 18 2 -10 2 -26 0 -35z m180 -85
c-2 -13 -4 -3 -4 22 0 25 2 35 4 23 2 -13 2 -33 0 -45z m-170 -20 c-2 -13 -4
-3 -4 22 0 25 2 35 4 23 2 -13 2 -33 0 -45z m220 40 c-3 -8 -6 -5 -6 6 -1 11
2 17 5 13 3 -3 4 -12 1 -19z m-7 -33 c8 5 15 -31 23 -117 1 -20 0 -35 -4 -32
-4 2 -10 -2 -12 -8 -3 -7 -3 4 0 26 3 21 1 41 -4 45 -6 3 -12 29 -15 56 -3 28
-3 44 -1 37 3 -6 9 -10 13 -7z m-33 -77 c-2 -13 -4 -3 -4 22 0 25 2 35 4 23 2
-13 2 -33 0 -45z m-170 -60 c-3 -7 -5 -2 -5 12 0 14 2 19 5 13 2 -7 2 -19 0
-25z m236 -116 c5 -64 4 -71 -9 -57 -12 11 -14 28 -8 75 4 33 8 59 9 58 1 -2
5 -36 8 -76z m-297 -30 c-11 -10 -12 3 -7 53 l6 50 3 -49 c2 -26 1 -51 -2 -54z
m241 66 c-3 -8 -6 -5 -6 6 -1 11 2 17 5 13 3 -3 4 -12 1 -19z m-170 -45 c-3
-10 -5 -2 -5 17 0 19 2 27 5 18 2 -10 2 -26 0 -35z m-650 -65 c-3 -8 -6 -5 -6
6 -1 11 2 17 5 13 3 -3 4 -12 1 -19z m580 -165 c-2 -37 -3 -9 -3 62 0 72 1
102 3 68 2 -34 2 -93 0 -130z m80 120 c-3 -10 -5 -4 -5 12 0 17 2 24 5 18 2
-7 2 -21 0 -30z m230 -35 c-2 -13 -4 -3 -4 22 0 25 2 35 4 23 2 -13 2 -33 0
-45z m-20 10 c-3 -7 -5 -2 -5 12 0 14 2 19 5 13 2 -7 2 -19 0 -25z m-840 0
c-3 -8 -6 -5 -6 6 -1 11 2 17 5 13 3 -3 4 -12 1 -19z m-100 -20 c-3 -7 -5 -2
-5 12 0 14 2 19 5 13 2 -7 2 -19 0 -25z m80 -35 c-3 -10 -5 -2 -5 17 0 19 2
27 5 18 2 -10 2 -26 0 -35z m-50 -15 c-3 -7 -5 -2 -5 12 0 14 2 19 5 13 2 -7
2 -19 0 -25z m80 -35 c-3 -10 -5 -2 -5 17 0 19 2 27 5 18 2 -10 2 -26 0 -35z
m630 15 c-3 -7 -5 -2 -5 12 0 14 2 19 5 13 2 -7 2 -19 0 -25z m-730 -40 c-3
-7 -5 -2 -5 12 0 14 2 19 5 13 2 -7 2 -19 0 -25z m80 -20 c-3 -7 -5 -2 -5 12
0 14 2 19 5 13 2 -7 2 -19 0 -25z m-50 -35 c-3 -10 -5 -2 -5 17 0 19 2 27 5
18 2 -10 2 -26 0 -35z m710 -15 c-3 -7 -5 -2 -5 12 0 14 2 19 5 13 2 -7 2 -19
0 -25z m230 -15 c-3 -10 -5 -2 -5 17 0 19 2 27 5 18 2 -10 2 -26 0 -35z m-960
-10 c-3 -10 -5 -4 -5 12 0 17 2 24 5 18 2 -7 2 -21 0 -30z m80 -40 c-3 -10 -5
-4 -5 12 0 17 2 24 5 18 2 -7 2 -21 0 -30z m-50 -25 c-3 -7 -5 -2 -5 12 0 14
2 19 5 13 2 -7 2 -19 0 -25z m80 -10 c-3 -7 -5 -2 -5 12 0 14 2 19 5 13 2 -7
2 -19 0 -25z m-100 -35 c-3 -10 -5 -4 -5 12 0 17 2 24 5 18 2 -7 2 -21 0 -30z
m80 -20 c-3 -10 -5 -2 -5 17 0 19 2 27 5 18 2 -10 2 -26 0 -35z m557 -5 c4
-17 2 -28 -4 -28 -5 0 -10 14 -10 32 0 36 4 35 14 -4z m-607 -15 c-3 -10 -5
-4 -5 12 0 17 2 24 5 18 2 -7 2 -21 0 -30z m80 -20 c-3 -10 -5 -2 -5 17 0 19
2 27 5 18 2 -10 2 -26 0 -35z m-100 -30 c-3 -10 -5 -2 -5 17 0 19 2 27 5 18 2
-10 2 -26 0 -35z m80 -5 c-3 -8 -6 -5 -6 6 -1 11 2 17 5 13 3 -3 4 -12 1 -19z
m-640 -10 c-3 -8 -6 -5 -6 6 -1 11 2 17 5 13 3 -3 4 -12 1 -19z m708 -254 c34
-262 42 -346 24 -254 -11 59 -69 489 -69 514 0 11 2 17 6 14 3 -3 21 -127 39
-274z m482 244 c-3 -7 -5 -2 -5 12 0 14 2 19 5 13 2 -7 2 -19 0 -25z m-600
-10 c-3 -8 -6 -5 -6 6 -1 11 2 17 5 13 3 -3 4 -12 1 -19z m-620 -20 c-3 -8 -6
-5 -6 6 -1 11 2 17 5 13 3 -3 4 -12 1 -19z m18 -195 c0 -231 14 -314 74 -448
16 -36 28 -65 25 -65 -16 0 -85 132 -103 197 -25 96 -44 249 -39 323 4 49 5
46 7 -25 l4 -80 12 135 c7 74 14 143 14 153 1 9 2 17 4 17 1 0 3 -93 2 -207z
m1202 110 c-2 -21 -4 -6 -4 32 0 39 2 55 4 38 2 -18 2 -50 0 -70z m-590 20
c-3 -10 -5 -2 -5 17 0 19 2 27 5 18 2 -10 2 -26 0 -35z m-640 -25 c-2 -13 -4
-5 -4 17 -1 22 1 32 4 23 2 -10 2 -28 0 -40z m620 0 c-3 -8 -6 -5 -6 6 -1 11
2 17 5 13 3 -3 4 -12 1 -19z m80 -20 c-3 -8 -6 -5 -6 6 -1 11 2 17 5 13 3 -3
4 -12 1 -19z m710 -50 c-3 -7 -5 -2 -5 12 0 14 2 19 5 13 2 -7 2 -19 0 -25z
m-170 -10 c-3 -7 -5 -2 -5 12 0 14 2 19 5 13 2 -7 2 -19 0 -25z m180 -40 c-3
-7 -5 -2 -5 12 0 14 2 19 5 13 2 -7 2 -19 0 -25z m110 -35 c-3 -10 -5 -4 -5
12 0 17 2 24 5 18 2 -7 2 -21 0 -30z m10 -55 c-3 -7 -5 -2 -5 12 0 14 2 19 5
13 2 -7 2 -19 0 -25z m-70 0 c-3 -8 -6 -5 -6 6 -1 11 2 17 5 13 3 -3 4 -12 1
-19z m-220 -90 c-3 -8 -6 -5 -6 6 -1 11 2 17 5 13 3 -3 4 -12 1 -19z m-460
-165 c-3 -10 -5 -4 -5 12 0 17 2 24 5 18 2 -7 2 -21 0 -30z m10 -75 c-3 -7 -5
-2 -5 12 0 14 2 19 5 13 2 -7 2 -19 0 -25z m10 -60 c-3 -7 -5 -2 -5 12 0 14 2
19 5 13 2 -7 2 -19 0 -25z m280 -550 c-3 -8 -6 -5 -6 6 -1 11 2 17 5 13 3 -3
4 -12 1 -19z"/>
<path d="M1721 4974 c0 -11 3 -14 6 -6 3 7 2 16 -1 19 -3 4 -6 -2 -5 -13z"/>
<path d="M1823 3630 c0 -36 2 -50 4 -32 2 17 2 47 0 65 -2 17 -4 3 -4 -33z"/>
<path d="M1832 3090 c0 -14 2 -19 5 -12 2 6 2 18 0 25 -3 6 -5 1 -5 -13z"/>
<path d="M2172 3950 c0 -14 2 -19 5 -12 2 6 2 18 0 25 -3 6 -5 1 -5 -13z"/>
<path d="M2171 3424 c0 -11 3 -14 6 -6 3 7 2 16 -1 19 -3 4 -6 -2 -5 -13z"/>
<path d="M2242 3775 c0 -16 2 -22 5 -12 2 9 2 23 0 30 -3 6 -5 -1 -5 -18z"/>
<path d="M2262 3560 c0 -14 2 -19 5 -12 2 6 2 18 0 25 -3 6 -5 1 -5 -13z"/>
<path d="M2272 3430 c0 -14 2 -19 5 -12 2 6 2 18 0 25 -3 6 -5 1 -5 -13z"/>
<path d="M2441 3424 c0 -11 3 -14 6 -6 3 7 2 16 -1 19 -3 4 -6 -2 -5 -13z"/>
<path d="M3921 3680 c0 -140 -18 -249 -62 -385 -33 -102 -44 -123 -260 -481
-86 -143 -169 -283 -185 -313 -48 -89 -38 -34 16 93 30 69 67 137 90 165 41
49 70 107 70 141 0 31 -44 70 -78 70 -16 0 -35 7 -42 15 -11 13 -15 13 -41 0
-37 -19 -96 -19 -106 0 -7 12 -16 13 -48 4 -32 -9 -49 -8 -87 6 -29 10 -59 14
-74 11 -47 -12 -129 -72 -184 -135 -56 -64 -70 -73 -71 -43 -1 30 -18 -18 -18
-53 l0 -30 42 46 c23 25 51 52 62 59 11 8 -8 -15 -42 -52 l-63 -66 0 -138 c0
-107 3 -135 12 -126 14 14 38 16 38 4 0 -5 -9 -18 -20 -30 -19 -20 -19 -24 -6
-74 21 -78 23 -82 67 -110 102 -66 305 -35 378 58 12 15 21 23 22 18 1 -14 37
69 38 87 1 9 9 19 19 21 10 3 91 133 196 314 99 170 206 352 238 405 31 53 72
138 90 190 31 91 33 100 33 254 0 104 -4 167 -12 180 -9 15 -11 -6 -12 -105z
m-841 -735 c-33 -19 -46 -19 -30 0 7 8 22 15 34 15 20 -1 20 -2 -4 -15z m466
-1 c17 -13 17 -14 1 -6 -12 5 -47 4 -91 -3 -47 -7 -106 -8 -167 -3 -52 4 -112
6 -134 3 -38 -4 -39 -4 -10 6 17 6 72 8 125 6 52 -3 118 -2 145 3 81 12 110
11 131 -6z m-446 -24 c-8 -5 -22 -9 -30 -9 -10 0 -8 3 5 9 27 12 43 12 25 0z
m110 -66 c21 -5 38 -17 50 -36 13 -22 19 -25 23 -14 3 8 18 22 32 32 22 14 30
15 53 5 18 -9 28 -9 30 -2 2 6 17 11 33 11 25 0 29 -4 29 -29 0 -57 -84 -121
-157 -121 -29 0 -34 -3 -25 -12 7 -7 12 -31 12 -55 0 -34 -3 -41 -15 -37 -8 4
-15 1 -15 -6 0 -6 5 -8 10 -5 19 12 22 -23 5 -57 -20 -39 -54 -78 -68 -78 -6
0 -18 -6 -26 -14 -21 -18 -137 -31 -146 -16 -4 6 -15 8 -25 5 -27 -9 -64 19
-99 74 -35 54 -38 71 -14 71 15 0 14 2 -3 14 -21 16 -16 20 44 30 l32 6 -16
-25 c-9 -14 -20 -25 -26 -25 -17 0 27 -49 45 -50 10 0 30 -6 45 -13 16 -8 47
-12 75 -9 43 4 52 9 79 46 l30 41 -24 3 c-33 5 -40 15 -29 43 l10 24 0 -27 c1
-18 6 -28 16 -28 20 0 19 24 -1 45 -15 14 -18 14 -33 0 -22 -19 -30 -19 -53 2
-25 23 -23 42 8 53 19 8 31 6 47 -5 23 -16 92 -21 101 -7 3 5 -15 9 -39 9 -24
0 -52 6 -61 14 -9 7 -27 12 -39 11 -34 -5 -95 24 -95 44 0 14 -3 15 -12 6 -7
-7 -20 -12 -30 -12 -17 0 -17 3 4 31 42 58 137 83 238 63z m210 -219 c0 -5
-11 -28 -31 -65 -5 -8 -16 -30 -25 -47 -9 -18 -20 -33 -25 -33 -12 0 -11 27 1
35 6 3 10 16 10 27 0 23 45 88 61 88 5 0 9 -2 9 -5z m-500 -202 c0 -5 -5 -15
-10 -23 -7 -12 -12 -12 -22 -2 -10 10 -10 15 2 22 18 12 30 13 30 3z m116
-107 c-4 -18 -14 -40 -23 -47 -14 -12 -15 -11 -9 11 23 79 45 104 32 36z m-46
30 c0 -2 -3 -11 -6 -20 -9 -23 -24 -20 -24 4 0 11 7 20 15 20 8 0 15 -2 15 -4z"/>
<path d="M3962 3370 c0 -14 2 -19 5 -12 2 6 2 18 0 25 -3 6 -5 1 -5 -13z"/>
<path d="M3153 3340 c-39 -23 -60 -86 -47 -140 8 -32 18 -39 100 -80 50 -25
100 -51 110 -59 14 -11 13 -8 -3 9 -12 12 -43 35 -70 49 -82 44 -118 148 -72
212 24 34 23 35 -18 9z"/>
<path d="M3550 3336 c0 -14 -11 -38 -25 -54 l-24 -29 24 -59 c32 -77 31 -87
-9 -131 -27 -29 -43 -38 -82 -44 l-49 -6 50 -1 c62 -2 83 10 141 78 45 53 46
56 41 107 -5 48 -48 163 -61 163 -4 0 -6 -11 -6 -24z"/>
<path d="M3951 3285 c-1 -16 -12 -77 -25 -135 -26 -113 -27 -146 -2 -59 21 75
39 184 33 206 -3 11 -5 7 -6 -12z"/>
<path d="M3628 2673 c-25 -54 -48 -109 -52 -123 l-6 -25 12 25 c50 106 98 214
95 217 -2 2 -24 -41 -49 -94z"/>
<path d="M4226 2665 c10 -193 51 -418 105 -580 30 -86 99 -229 121 -250 6 -5
-2 15 -19 45 -98 179 -162 421 -198 755 -14 129 -14 129 -9 30z"/>
<path d="M3536 2441 c-25 -80 -66 -263 -66 -297 0 -39 12 -2 21 67 6 40 26
125 44 188 38 133 39 162 1 42z"/>
<path d="M3299 2278 c-35 -69 -105 -162 -155 -207 -26 -23 -42 -41 -36 -41 12
0 101 66 120 89 21 26 104 193 98 198 -2 3 -14 -15 -27 -39z"/>
<path d="M2903 2013 c15 -2 37 -2 50 0 12 2 0 4 -28 4 -27 0 -38 -2 -22 -4z"/>
<path d="M2988 2003 c7 -3 16 -2 19 1 4 3 -2 6 -13 5 -11 0 -14 -3 -6 -6z"/>
<path d="M3586 1767 c3 -10 9 -15 12 -12 3 3 0 11 -7 18 -10 9 -11 8 -5 -6z"/>
<path d="M3600 1735 c0 -5 5 -17 10 -25 5 -8 10 -10 10 -5 0 6 -5 17 -10 25
-5 8 -10 11 -10 5z"/>
<path d="M3731 1714 c0 -11 3 -14 6 -6 3 7 2 16 -1 19 -3 4 -6 -2 -5 -13z"/>
<path d="M3751 1644 c0 -11 3 -14 6 -6 3 7 2 16 -1 19 -3 4 -6 -2 -5 -13z"/>
<path d="M3771 1585 c1 -19 18 -51 18 -35 0 8 -4 22 -9 30 -5 8 -9 11 -9 5z"/>
<path d="M3690 1538 c0 -9 5 -20 10 -23 13 -8 13 5 0 25 -8 13 -10 13 -10 -2z"/>
<path d="M3796 1510 c3 -14 11 -32 16 -40 6 -10 7 -7 2 10 -3 14 -11 32 -16
40 -6 10 -7 7 -2 -10z"/>
<path d="M3720 1476 c0 -8 51 -120 98 -214 41 -82 262 -370 384 -500 127 -135
166 -172 228 -215 28 -19 -13 27 -105 118 -83 83 -187 196 -233 253 -93 117
-247 346 -316 472 -49 87 -56 99 -56 86z"/>
<path d="M3820 1445 c0 -5 5 -17 10 -25 5 -8 10 -10 10 -5 0 6 -5 17 -10 25
-5 8 -10 11 -10 5z"/>
<path d="M3840 1395 c0 -5 5 -17 10 -25 5 -8 10 -10 10 -5 0 6 -5 17 -10 25
-5 8 -10 11 -10 5z"/>
<path d="M3870 1326 c0 -11 50 -106 55 -106 3 0 -7 24 -21 53 -28 55 -34 65
-34 53z"/>
<path d="M4990 1279 c0 -6 62 -305 94 -452 31 -142 32 -162 10 -153 -15 6 -16
0 -11 -47 4 -29 25 -117 47 -195 22 -78 40 -153 40 -167 0 -28 -55 -95 -78
-95 -37 0 -112 49 -181 120 -41 41 -69 66 -64 55 18 -34 124 -128 196 -174 85
-55 157 -70 194 -41 24 19 24 19 4 30 -51 27 5 50 64 26 l37 -16 -17 26 c-12
18 -14 29 -6 37 10 10 22 10 96 4 24 -2 31 2 33 21 2 13 -2 22 -10 22 -8 0
-35 21 -60 48 -66 66 -153 243 -212 427 -119 374 -176 544 -176 524z"/>
<path d="M3950 1170 c6 -11 13 -20 16 -20 2 0 0 9 -6 20 -6 11 -13 20 -16 20
-2 0 0 -9 6 -20z"/>
</g>
</svg>
